<svg xmlns="http://www.w3.org/2000/svg" width="210" height="185" viewBox="0 0 210 185" role="img" aria-labelledby="ilmnet-icon-only-title ilmnet-icon-only-desc">
  <title id="ilmnet-icon-only-title">IlmNet — icon only</title>
  <desc id="ilmnet-icon-only-desc">Book and leaf symbol. Reconstructed outlines from the official raster references, not an original vector master. Transparent; no embedded images or fonts.</desc>
  <path fill="#1F2933" fill-rule="evenodd" d="M79.5 125.536C77.487 124.38 76.276 121.403 74.862 119.5C72.216 115.941 68.382 112.449 64.5 110.315C58.504 107.018 52.242 104.575 45.5 103.162C42.23 102.477 38.399 102.516 35.5 100.724C33.759 99.649 34.275 96.106 34.258 94.5C34.212 89.834 34.274 85.166 34.246 80.5C34.232 78.249 33.878 75.65 34.556 73.5C34.916 73.371 35.14 72.975 35.5 72.846C37.257 72.217 39.802 73.324 41.5 73.75C45.686 74.799 49.516 76.273 53.5 77.889C62.836 81.678 72.512 88.982 76.711 98.5C79.138 104.003 80.105 109.504 80.096 115.5C80.091 118.594 80.553 122.642 79.5 125.536ZM85.244 125.5C83.686 117.395 84.151 108.228 87.126 100.5C91.135 90.088 101.453 81.915 111.5 77.89C115.457 76.305 119.343 74.816 123.5 73.803C125.202 73.389 127.773 72.206 129.5 72.862C129.837 72.99 130.036 73.372 130.373 73.5C131.067 75.638 130.676 78.254 130.66 80.5C130.624 85.167 130.667 89.833 130.666 94.5C130.665 96.43 131.208 99.497 129.5 100.936C128.271 101.972 127.033 102 125.5 102.308C122.183 102.973 118.774 103.285 115.5 104.144C109.474 105.724 103.861 108.301 98.5 111.402C94.639 113.636 90.732 117.838 88.236 121.5C87.54 122.522 86.178 125.5 85.244 125.5Z"/>
  <path fill="#CC3A63" fill-rule="evenodd" d="M82.5 90.201C82.191 90.054 81.809 90.117 81.5 89.97C80.159 89.333 79.374 86.721 78.779 85.5C77.938 83.775 76.637 82.186 75.713 80.5C73.987 77.351 71.593 74.533 69.667 71.5C68.818 70.163 67.661 69.183 67.429 67.5C67.057 64.795 68.704 62.754 69.862 60.5C72.3 55.76 75.069 51.214 77.534 46.5C78.248 45.135 79.11 43.86 79.82 42.5C80.223 41.727 80.677 40.401 81.5 39.932C81.803 39.759 82.197 39.793 82.5 39.62C82.807 39.809 83.193 39.841 83.5 40.03C84.223 40.475 84.661 41.78 85.047 42.5C85.767 43.845 86.542 45.146 87.239 46.5C89.691 51.26 92.704 55.731 95.141 60.5C96.298 62.765 98.082 64.79 97.595 67.5C97.232 69.523 95.718 71.262 94.5 72.852C92.619 75.308 90.777 77.894 89.109 80.5C88.085 82.1 86.967 83.801 86.151 85.5C85.574 86.702 84.796 89.258 83.5 89.899C83.188 90.054 82.812 90.046 82.5 90.201Z"/>
  <path fill="#A2AB73" fill-rule="evenodd" d="M34.418 108.5C36.227 106.895 38.207 107.412 40.5 107.623C43.526 107.901 46.536 107.966 49.5 108.647C52.579 109.354 55.586 110.1 58.5 111.36C59.906 111.969 61.156 113.005 62.5 113.72C72.074 118.813 78.212 128.911 79.616 139.5C79.584 139.833 79.732 140.167 79.7 140.5C79.66 140.917 78.915 140.931 78.5 140.875C78.089 140.82 77.861 140.34 77.5 140.136C76.675 139.67 76.293 139.463 75.5 138.969C71.401 136.419 66.961 133.989 62.5 132.107C53.36 128.251 43.524 124.078 37.785 115.5C36.369 113.384 34.608 111.077 34.418 108.5ZM84.886 140.5C85.493 130.204 91.667 120.259 100.5 114.838C101.833 114.019 103.069 112.919 104.5 112.259C108.107 110.596 111.616 109.528 115.5 108.738C118.834 108.06 122.083 107.78 125.5 107.717C126.613 107.696 128.472 107.349 129.5 107.856C129.774 107.991 129.877 108.365 130.151 108.5C129.798 112.652 126.916 116.505 124.031 119.5C116.897 126.905 106.626 130.292 97.5 134.473C94.403 135.892 91.511 137.714 88.5 139.259C87.836 139.6 86.311 141.38 85.5 141.255C85.179 141.205 85.206 140.549 84.886 140.5Z"/>
</svg>
